<svg aria-hidden="true" style="position: absolute; width: 0; height: 0; overflow: hidden;" version="1.1" xmlns="http://www.w3.org/2000/svg" xmlns:xlink="http://www.w3.org/1999/xlink">
<defs>
<symbol id="icon-brandfolder" viewBox="0 0 32 32">
<path fill="#40d1f5" style="fill: var(--color1, #40d1f5)" d="M0 31.055h26.135v-3.971h-22.161v-22.165h22.168v14.548h-1.896l3.877 3.879 3.877-3.88h-1.889v-18.52h-30.111zM21.531 17.808c-0.255-0.541-0.576-0.985-0.96-1.329-0.383-0.344-0.799-0.605-1.244-0.777-0.449-0.176-0.855-0.289-1.221-0.339 0.335-0.045 0.661-0.179 0.98-0.395 0.321-0.215 0.607-0.485 0.863-0.812 0.256-0.329 0.46-0.713 0.611-1.151 0.153-0.44 0.228-0.915 0.228-1.425 0-0.864-0.168-1.581-0.503-2.156-0.336-0.576-0.796-1.033-1.377-1.377s-1.264-0.587-2.048-0.729c-0.781-0.144-1.613-0.216-2.491-0.216-1.005 0-1.843 0.024-2.516 0.072-0.669 0.049-1.26 0.111-1.772 0.193v17.244c0.912 0.111 1.724 0.188 2.445 0.228 0.719 0.040 1.443 0.059 2.179 0.059 0.957 0 1.872-0.072 2.743-0.216 0.869-0.143 1.636-0.405 2.297-0.789 0.665-0.384 1.191-0.907 1.583-1.569 0.392-0.664 0.588-1.513 0.588-2.552 0-0.767-0.128-1.42-0.384-1.963zM13.553 9.761c1.213-0.148 2.497-0.072 3.068 0.405 0.507 0.423 0.809 0.799 0.809 1.893 0 1.001-0.476 1.593-0.811 1.808s-0.787 0.491-1.871 0.491-1.196 0-1.196 0zM17.592 21.335c-0.599 0.52-1.485 0.736-2.421 0.736-1.053 0-1.617-0.096-1.617-0.096v-4.983h1.509c0.948 0 1.917 0.168 2.443 0.619 0.679 0.583 0.815 1.193 0.815 2.007 0.001 0.812-0.283 1.331-0.728 1.717z"></path>
</symbol>
<symbol id="icon-heart" viewBox="0 0 32 32">
<path d="M29.193 5.265c-3.629-3.596-9.432-3.671-13.191-0.288-3.76-3.383-9.561-3.308-13.192 0.288-3.741 3.704-3.741 9.709 0 13.415 1.069 1.059 11.053 10.941 11.053 10.941 1.183 1.172 3.096 1.172 4.278 0 0 0 10.932-10.822 11.053-10.941 3.742-3.706 3.742-9.711-0.001-13.415zM27.768 17.268l-11.053 10.941c-0.393 0.391-1.034 0.391-1.425 0l-11.053-10.941c-2.95-2.92-2.95-7.671 0-10.591 2.844-2.815 7.416-2.914 10.409-0.222l1.356 1.22 1.355-1.22c2.994-2.692 7.566-2.594 10.41 0.222 2.95 2.919 2.95 7.67 0.001 10.591zM9.253 7.501c0.277 0 0.5 0.224 0.5 0.5s-0.224 0.5-0.5 0.5h-0.001c-1.794 0-3.249 1.455-3.249 3.249v0.001c0 0.276-0.224 0.5-0.5 0.5s-0.5-0.224-0.5-0.5v0c0-2.346 1.901-4.247 4.246-4.249 0.002 0 0.002-0.001 0.004-0.001z"></path>
</symbol>
<symbol id="icon-check-out" viewBox="0 0 32 32">
<path d="M15.694 13.541l2.666 2.665 5.016-5.017 2.59 2.59 0.004-7.734-7.785-0.046 2.526 2.525-5.017 5.017zM25.926 16.945l-1.92-1.947 0.035 9.007-16.015 0.009 0.016-15.973 8.958-0.040-2-2h-7c-1.104 0-2 0.896-2 2v16c0 1.104 0.896 2 2 2h16c1.104 0 2-0.896 2-2l-0.074-7.056z"></path>
</symbol>
<symbol id="icon-chat" viewBox="0 0 32 32">
<path d="M25.042 18.672v-12.487c0-1.234-1-2.236-2.236-2.236h-19.571c-1.235-0.001-2.236 1.001-2.236 2.236v12.487c0 1.235 1.001 2.236 2.236 2.236h3.729v5.137l5.704-5.137h10.137c1.237 0 2.237-1.001 2.237-2.236zM28.765 8.858h-2.798c0 0 0 9.972 0 10.909s-1.216 2.142-2.153 2.142-10.945 0.055-10.945 0.055c0 1.235 1.001 1.986 2.236 1.986h4.309l5.622 5.102-0.007-5.102h3.736c1.236 0 2.236-0.751 2.236-1.986v-10.932c0-1.234-1-2.174-2.236-2.174z"></path>
</symbol>
<symbol id="icon-product" viewBox="0 0 42 32">
<path d="M40.5 0h-10c-0.691 0-1.574 0.376-2.047 0.87l-1.33 1.34c-0.194 0.196-0.192 0.513 0.004 0.707 0.194 0.194 0.513 0.193 0.707-0.003l1.334-1.346c0.285-0.297 0.92-0.568 1.332-0.568h10c0.275 0 0.5 0.224 0.5 0.5v10.049c0 0.411-0.271 1.046-0.574 1.337l-14.081 13.972c-0.201 0.191-0.535 0.186-0.73-0.008l-2.648-2.649c-0.195-0.195-0.512-0.195-0.707 0s-0.195 0.512 0 0.707l2.648 2.649c0.294 0.293 0.684 0.441 1.074 0.441 0.382 0 0.765-0.141 1.062-0.424l14.082-13.973c0.498-0.478 0.874-1.361 0.874-2.052v-10.049c0-0.827-0.673-1.5-1.5-1.5zM39.038 5c0-1.103-0.897-2-2-2s-2 0.897-2 2 0.897 2 2 2 2-0.897 2-2zM36.038 5c0-0.551 0.448-1 1-1s1 0.449 1 1-0.448 1-1 1-1-0.449-1-1zM16.462 4c-0.691 0-1.574 0.376-2.048 0.87l-13.993 14.131c-0.568 0.592-0.56 1.547 0.021 2.128l10.428 10.428c0.285 0.286 0.667 0.443 1.076 0.443 0.396 0 0.77-0.149 1.059-0.426l14.081-13.972c0.499-0.478 0.876-1.361 0.876-2.053v-10.049c0-0.827-0.673-1.5-1.5-1.5h-10zM27 5.5v10.049c0 0.412-0.309 1.046-0.612 1.337l-14.081 13.972c-0.195 0.185-0.54 0.181-0.729-0.008l-10.429-10.427c-0.195-0.196-0.199-0.53-0.013-0.723l13.994-14.132c0.285-0.297 0.92-0.568 1.332-0.568h10c0.275 0 0.538 0.224 0.538 0.5zM23 7c-1.103 0-2 0.897-2 2s0.897 2 2 2 2-0.897 2-2-0.897-2-2-2zM23 10c-0.552 0-1-0.449-1-1s0.448-1 1-1 1 0.449 1 1-0.448 1-1 1z"></path>
</symbol>
<symbol id="icon-dollar" viewBox="0 0 16 28">
<path d="M15.281 18.516c0 3.187-2.281 5.703-5.594 6.25v2.734c0 0.281-0.219 0.5-0.5 0.5h-2.109c-0.266 0-0.5-0.219-0.5-0.5v-2.734c-3.656-0.516-5.656-2.703-5.734-2.797-0.156-0.187-0.172-0.453-0.031-0.641l1.609-2.109c0.078-0.109 0.219-0.172 0.359-0.187s0.281 0.031 0.375 0.141c0.031 0.016 2.219 2.109 4.984 2.109 1.531 0 3.187-0.812 3.187-2.578 0-1.5-1.844-2.234-3.953-3.078-2.812-1.109-6.312-2.516-6.312-6.438 0-2.875 2.25-5.25 5.516-5.875v-2.812c0-0.281 0.234-0.5 0.5-0.5h2.109c0.281 0 0.5 0.219 0.5 0.5v2.75c3.172 0.359 4.859 2.078 4.922 2.141 0.156 0.172 0.187 0.406 0.078 0.594l-1.266 2.281c-0.078 0.141-0.203 0.234-0.359 0.25-0.156 0.031-0.297-0.016-0.422-0.109-0.016-0.016-1.906-1.687-4.25-1.687-1.984 0-3.359 0.984-3.359 2.406 0 1.656 1.906 2.391 4.125 3.25 2.875 1.109 6.125 2.375 6.125 6.141z"></path>
</symbol>
<symbol id="icon-magnifying-glass" viewBox="0 0 20 20">
<path d="M17.545 15.467l-3.779-3.779c0.57-0.935 0.898-2.035 0.898-3.21 0-3.417-2.961-6.377-6.378-6.377s-6.186 2.769-6.186 6.186c0 3.416 2.961 6.377 6.377 6.377 1.137 0 2.2-0.309 3.115-0.844l3.799 3.801c0.372 0.371 0.975 0.371 1.346 0l0.943-0.943c0.371-0.371 0.236-0.84-0.135-1.211zM4.004 8.287c0-2.366 1.917-4.283 4.282-4.283s4.474 2.107 4.474 4.474c0 2.365-1.918 4.283-4.283 4.283s-4.473-2.109-4.473-4.474z"></path>
</symbol>
<symbol id="icon-contact" viewBox="0 0 32 32">
<path d="M29 32h-22c-0.552 0-1-0.447-1-1v-1h-3c-0.553 0-1-0.447-1-1v-2c0-0.553 0.447-1 1-1h3v-2h-3c-0.553 0-1-0.447-1-1v-2c0-0.553 0.447-1 1-1h3v-2h-3c-0.553 0-1-0.447-1-1v-2c0-0.553 0.447-1 1-1h3v-2h-3c-0.553 0-1-0.447-1-1v-2c0-0.553 0.447-1 1-1h3v-2h-3c-0.553 0-1-0.447-1-1v-2c0-0.553 0.447-1 1-1h3v-1c0-0.553 0.448-1 1-1h22c0.553 0 1 0.447 1 1v30c0 0.553-0.447 1-1 1zM6 3h-2c-0.553 0-1 0.447-1 1s0.447 1 1 1h2c0.553 0 1-0.447 1-1s-0.447-1-1-1zM6 9h-2c-0.553 0-1 0.447-1 1s0.447 1 1 1h2c0.553 0 1-0.447 1-1s-0.447-1-1-1zM6 15h-2c-0.553 0-1 0.447-1 1s0.447 1 1 1h2c0.553 0 1-0.447 1-1s-0.447-1-1-1zM6 21h-2c-0.553 0-1 0.447-1 1s0.447 1 1 1h2c0.553 0 1-0.447 1-1s-0.447-1-1-1zM6 27h-2c-0.553 0-1 0.447-1 1s0.447 1 1 1h2c0.553 0 1-0.447 1-1s-0.447-1-1-1zM24 20.875c0-1.705-2.118-2.317-4.912-2.573 0.116-0.071 0.222-0.188 0.327-0.302h-0.415c0.553 0 1-0.447 1-1v-6c0-0.553-0.447-1-1-1h-2c-0.553 0-1 0.447-1 1v6c0 0.553 0.447 1 1 1h-0.415c0.105 0.114 0.212 0.23 0.327 0.302-2.794 0.256-4.912 0.891-4.912 2.573v1.125h12v-1.125z"></path>
</symbol>
<symbol id="icon-home" viewBox="0 0 32 32">
<path d="M32 19l-6-6v-9h-4v5l-6-6-16 16v1h4v10h10v-6h4v6h10v-10h4z"></path>
</symbol>
<symbol id="icon-cart" viewBox="0 0 32 32">
<path d="M12 29c0 1.657-1.343 3-3 3s-3-1.343-3-3c0-1.657 1.343-3 3-3s3 1.343 3 3z"></path>
<path d="M32 29c0 1.657-1.343 3-3 3s-3-1.343-3-3c0-1.657 1.343-3 3-3s3 1.343 3 3z"></path>
<path d="M32 16v-12h-24c0-1.105-0.895-2-2-2h-6v2h4l1.502 12.877c-0.915 0.733-1.502 1.859-1.502 3.123 0 2.209 1.791 4 4 4h24v-2h-24c-1.105 0-2-0.895-2-2 0-0.007 0-0.014 0-0.020l26-3.98z"></path>
</symbol>
<symbol id="icon-compass" viewBox="0 0 32 32">
<path d="M17 32c-0.072 0-0.144-0.008-0.217-0.024-0.458-0.102-0.783-0.507-0.783-0.976v-15h-15c-0.469 0-0.875-0.326-0.976-0.783s0.129-0.925 0.553-1.123l30-14c0.381-0.178 0.833-0.098 1.13 0.199s0.377 0.749 0.199 1.13l-14 30c-0.167 0.358-0.524 0.577-0.906 0.577zM5.508 14h11.492c0.552 0 1 0.448 1 1v11.492l10.931-23.423-23.423 10.931z"></path>
</symbol>
<symbol id="icon-user" viewBox="0 0 32 32">
<path d="M12 23c0-4.726 2.996-8.765 7.189-10.319 0.509-1.142 0.811-2.411 0.811-3.681 0-4.971 0-9-6-9s-6 4.029-6 9c0 3.096 1.797 6.191 4 7.432v1.649c-6.784 0.555-12 3.888-12 7.918h12.416c-0.271-0.954-0.416-1.96-0.416-3z"></path>
<path d="M23 14c-4.971 0-9 4.029-9 9s4.029 9 9 9c4.971 0 9-4.029 9-9s-4.029-9-9-9zM28 24h-4v4h-2v-4h-4v-2h4v-4h2v4h4v2z"></path>
</symbol>
<symbol id="icon-location_city" viewBox="0 0 24 24">
<path d="M18.984 15v-2.016h-1.969v2.016h1.969zM18.984 18.984v-1.969h-1.969v1.969h1.969zM12.984 6.984v-1.969h-1.969v1.969h1.969zM12.984 11.016v-2.016h-1.969v2.016h1.969zM12.984 15v-2.016h-1.969v2.016h1.969zM12.984 18.984v-1.969h-1.969v1.969h1.969zM6.984 11.016v-2.016h-1.969v2.016h1.969zM6.984 15v-2.016h-1.969v2.016h1.969zM6.984 18.984v-1.969h-1.969v1.969h1.969zM15 11.016h6v9.984h-18v-14.016h6v-1.969l3-3 3 3v6z"></path>
</symbol>
<symbol id="icon-read_more" viewBox="0 0 24 24">
<path d="M12.984 6.984h9v2.016h-9v-2.016zM12.984 15h9v2.016h-9v-2.016zM15.984 11.016h6v1.969h-6v-1.969zM12.984 12l-4.969-5.016v4.031h-6v1.969h6v4.031z"></path>
</symbol>
<symbol id="icon-registration" viewBox="0 0 24 24">
<path d="M9.984 3.984h4.031v4.031h-4.031v-4.031zM3.984 15.984h4.031v4.031h-4.031v-4.031zM3.984 9.984h4.031v4.031h-4.031v-4.031zM3.984 3.984h4.031v4.031h-4.031v-4.031zM14.016 12.422v-2.438h-4.031v4.031h2.438zM20.859 11.297l-1.172-1.172q-0.094-0.141-0.258-0.141t-0.305 0.141l-0.891 0.891 1.781 1.734 0.844-0.891q0.141-0.094 0.141-0.281t-0.141-0.281zM11.016 18.234v1.781h1.734l6.656-6.703-1.734-1.734zM15.984 3.984h4.031v4.031h-4.031v-4.031z"></path>
</symbol>
</defs>
</svg>
